<mxfile host="app.diagrams.net" agent="Mozilla/5.0 (X11; Ubuntu; Linux x86_64; rv:135.0) Gecko/20100101 Firefox/135.0" version="26.0.16">
  <diagram name="PÃ¡gina-1" id="dAMKJRR-eMjITWGBEd3c">
    <mxGraphModel dx="607" dy="338" grid="1" gridSize="10" guides="1" tooltips="1" connect="1" arrows="1" fold="1" page="1" pageScale="1" pageWidth="827" pageHeight="1169" math="0" shadow="0">
      <root>
        <mxCell id="0" />
        <mxCell id="1" parent="0" />
        <mxCell id="2hcM3AbItyLFn5zXV8h_-19" value="" style="rounded=0;whiteSpace=wrap;html=1;strokeColor=none;fillColor=light-dark(#f66151, #512d2b);" parent="1" vertex="1">
          <mxGeometry x="90" y="322" width="360" height="178" as="geometry" />
        </mxCell>
        <mxCell id="2hcM3AbItyLFn5zXV8h_-18" value="" style="rounded=0;whiteSpace=wrap;html=1;strokeColor=none;fillColor=#CCCCCC;" parent="1" vertex="1">
          <mxGeometry x="90" y="160" width="360" height="162" as="geometry" />
        </mxCell>
        <mxCell id="2hcM3AbItyLFn5zXV8h_-4" value="" style="endArrow=none;html=1;rounded=0;entryX=0.55;entryY=0.95;entryDx=0;entryDy=0;entryPerimeter=0;strokeWidth=2;" parent="1" edge="1">
          <mxGeometry width="50" height="50" relative="1" as="geometry">
            <mxPoint x="275" y="290" as="sourcePoint" />
            <mxPoint x="275" y="236.5" as="targetPoint" />
          </mxGeometry>
        </mxCell>
        <mxCell id="2hcM3AbItyLFn5zXV8h_-10" value="" style="endArrow=none;html=1;rounded=0;entryX=0.55;entryY=0.95;entryDx=0;entryDy=0;entryPerimeter=0;strokeWidth=2;" parent="1" edge="1">
          <mxGeometry width="50" height="50" relative="1" as="geometry">
            <mxPoint x="274.83" y="443.5" as="sourcePoint" />
            <mxPoint x="274.83" y="280" as="targetPoint" />
          </mxGeometry>
        </mxCell>
        <mxCell id="2hcM3AbItyLFn5zXV8h_-6" value="" style="image;aspect=fixed;perimeter=ellipsePerimeter;html=1;align=center;shadow=0;dashed=0;spacingTop=3;image=img/lib/active_directory/firewall.svg;" parent="1" vertex="1">
          <mxGeometry x="259.75" y="240" width="30.5" height="50" as="geometry" />
        </mxCell>
        <mxCell id="2hcM3AbItyLFn5zXV8h_-7" value="" style="image;aspect=fixed;perimeter=ellipsePerimeter;html=1;align=center;shadow=0;dashed=0;spacingTop=3;image=img/lib/active_directory/firewall.svg;" parent="1" vertex="1">
          <mxGeometry x="259.75" y="363" width="30.5" height="50" as="geometry" />
        </mxCell>
        <mxCell id="2hcM3AbItyLFn5zXV8h_-11" value="ENCRIPTADOR" style="text;html=1;align=center;verticalAlign=middle;resizable=0;points=[];autosize=1;strokeColor=none;fillColor=none;fontStyle=0;fontFamily=Times New Roman;" parent="1" vertex="1">
          <mxGeometry x="300" y="322" width="110" height="30" as="geometry" />
        </mxCell>
        <mxCell id="2hcM3AbItyLFn5zXV8h_-12" value="FIREWALL" style="text;html=1;align=center;verticalAlign=middle;resizable=0;points=[];autosize=1;strokeColor=none;fillColor=none;fontStyle=0;fontFamily=Times New Roman;" parent="1" vertex="1">
          <mxGeometry x="287" y="250" width="80" height="30" as="geometry" />
        </mxCell>
        <mxCell id="2hcM3AbItyLFn5zXV8h_-13" value="FIREWALL" style="text;html=1;align=center;verticalAlign=middle;resizable=0;points=[];autosize=1;strokeColor=none;fillColor=none;fontStyle=0;fontFamily=Times New Roman;" parent="1" vertex="1">
          <mxGeometry x="288" y="377" width="80" height="30" as="geometry" />
        </mxCell>
        <mxCell id="2hcM3AbItyLFn5zXV8h_-17" value="" style="endArrow=none;dashed=1;html=1;rounded=0;strokeWidth=2;" parent="1" edge="1">
          <mxGeometry width="50" height="50" relative="1" as="geometry">
            <mxPoint x="105" y="322.76" as="sourcePoint" />
            <mxPoint x="445" y="322.76" as="targetPoint" />
          </mxGeometry>
        </mxCell>
        <mxCell id="2hcM3AbItyLFn5zXV8h_-5" value="" style="rounded=0;whiteSpace=wrap;html=1;" parent="1" vertex="1">
          <mxGeometry x="250" y="303" width="50" height="40" as="geometry" />
        </mxCell>
        <mxCell id="2hcM3AbItyLFn5zXV8h_-8" value="" style="html=1;verticalLabelPosition=bottom;align=center;labelBackgroundColor=#ffffff;verticalAlign=top;strokeWidth=2;strokeColor=#0080F0;shadow=0;dashed=0;shape=mxgraph.ios7.icons.locked;" parent="1" vertex="1">
          <mxGeometry x="263" y="308" width="24" height="30" as="geometry" />
        </mxCell>
        <mxCell id="2hcM3AbItyLFn5zXV8h_-20" value="&lt;div&gt;TEXTO&lt;/div&gt;&lt;div&gt;PLANO&lt;/div&gt;" style="text;html=1;align=center;verticalAlign=middle;resizable=0;points=[];autosize=1;strokeColor=none;fillColor=none;fontStyle=0;fontFamily=Times New Roman;" parent="1" vertex="1">
          <mxGeometry x="245" y="440" width="60" height="40" as="geometry" />
        </mxCell>
        <mxCell id="2hcM3AbItyLFn5zXV8h_-21" value="&lt;div&gt;DOMINIO&lt;/div&gt;&lt;div&gt;ROJO&lt;br&gt;&lt;/div&gt;" style="text;html=1;align=center;verticalAlign=middle;resizable=0;points=[];autosize=1;strokeColor=none;fillColor=none;fontStyle=0;fontFamily=Times New Roman;" parent="1" vertex="1">
          <mxGeometry x="150" y="335" width="80" height="40" as="geometry" />
        </mxCell>
        <mxCell id="2hcM3AbItyLFn5zXV8h_-22" value="&lt;div&gt;DOMINIO&lt;/div&gt;&lt;div&gt;NEGRO&lt;br&gt;&lt;/div&gt;" style="text;html=1;align=center;verticalAlign=middle;resizable=0;points=[];autosize=1;strokeColor=none;fillColor=none;fontStyle=0;shadow=0;fontFamily=Times New Roman;" parent="1" vertex="1">
          <mxGeometry x="150" y="268" width="80" height="40" as="geometry" />
        </mxCell>
        <mxCell id="fYZ9VzG72_PVpmJVYnIP-2" value="&lt;div&gt;TEXTO&lt;/div&gt;&lt;div&gt;CIFRADO&lt;/div&gt;" style="text;html=1;align=center;verticalAlign=middle;resizable=0;points=[];autosize=1;strokeColor=none;fillColor=none;fontStyle=0;fontFamily=Times New Roman;" vertex="1" parent="1">
          <mxGeometry x="235" y="200" width="80" height="40" as="geometry" />
        </mxCell>
      </root>
    </mxGraphModel>
  </diagram>
</mxfile>
